<mxfile host="app.diagrams.net" modified="2020-12-01T14:28:07.517Z" agent="5.0 (Windows NT 10.0; Win64; x64) AppleWebKit/537.36 (KHTML, like Gecko) Chrome/86.0.4240.198 Safari/537.36" etag="tIGCUk8CLiy8HKziOYQd" version="13.10.5" type="github">
  <diagram id="SqzLZP4Tq1UI5nP1CFep" name="Page-1">
    <mxGraphModel dx="1221" dy="682" grid="1" gridSize="10" guides="1" tooltips="1" connect="1" arrows="1" fold="1" page="1" pageScale="1" pageWidth="1169" pageHeight="827" math="0" shadow="0">
      <root>
        <mxCell id="0" />
        <mxCell id="1" parent="0" />
        <mxCell id="MLYBAFH9ieWStkkf3gBx-81" style="orthogonalLoop=1;jettySize=auto;html=1;exitX=0.5;exitY=0;exitDx=0;exitDy=0;startArrow=ERzeroToMany;startSize=10;endArrow=ERone;endSize=10;strokeWidth=3;fontSize=12;endFill=0;startFill=1;" parent="1" source="MLYBAFH9ieWStkkf3gBx-42" target="MLYBAFH9ieWStkkf3gBx-8" edge="1">
          <mxGeometry relative="1" as="geometry" />
        </mxCell>
        <mxCell id="MLYBAFH9ieWStkkf3gBx-64" value="" style="fontSize=12;html=1;endArrow=ERoneToMany;startArrow=ERzeroToMany;strokeWidth=3;endSize=10;startSize=10;exitX=0.5;exitY=1.026;exitDx=0;exitDy=0;exitPerimeter=0;startFill=1;endFill=0;rounded=0;jumpStyle=none;" parent="1" source="MLYBAFH9ieWStkkf3gBx-11" target="BZns07hrkQqCRaPmtEQy-5" edge="1">
          <mxGeometry width="100" height="100" relative="1" as="geometry">
            <mxPoint x="230" y="160" as="sourcePoint" />
            <mxPoint x="388" y="20" as="targetPoint" />
          </mxGeometry>
        </mxCell>
        <mxCell id="MLYBAFH9ieWStkkf3gBx-65" value="Na" style="text;html=1;align=center;verticalAlign=middle;resizable=0;points=[];labelBackgroundColor=#ffffff;fontSize=14;" parent="MLYBAFH9ieWStkkf3gBx-64" vertex="1" connectable="0">
          <mxGeometry x="-0.0357" y="1" relative="1" as="geometry">
            <mxPoint x="19" y="-1" as="offset" />
          </mxGeometry>
        </mxCell>
        <mxCell id="MLYBAFH9ieWStkkf3gBx-86" style="rounded=0;orthogonalLoop=1;jettySize=auto;html=1;startSize=8;endArrow=none;endFill=0;endSize=9;strokeWidth=2;fontSize=14;dashed=1;dashPattern=1 1;strokeColor=#4D4D4D;entryX=0.505;entryY=0.984;entryDx=0;entryDy=0;entryPerimeter=0;" parent="1" target="MLYBAFH9ieWStkkf3gBx-85" edge="1">
          <mxGeometry relative="1" as="geometry">
            <mxPoint x="460" y="506" as="targetPoint" />
            <mxPoint x="375" y="570" as="sourcePoint" />
          </mxGeometry>
        </mxCell>
        <mxCell id="MLYBAFH9ieWStkkf3gBx-42" value="Stage" style="swimlane;fontStyle=0;childLayout=stackLayout;horizontal=1;startSize=26;fillColor=#e0e0e0;horizontalStack=0;resizeParent=1;resizeParentMax=0;resizeLast=0;collapsible=1;marginBottom=0;swimlaneFillColor=#ffffff;align=center;fontSize=14;" parent="1" vertex="1">
          <mxGeometry x="60" y="550" width="160" height="100" as="geometry" />
        </mxCell>
        <mxCell id="MLYBAFH9ieWStkkf3gBx-43" value="&lt;&lt;PK&gt;&gt; ID" style="text;strokeColor=none;fillColor=none;spacingLeft=4;spacingRight=4;overflow=hidden;rotatable=0;points=[[0,0.5],[1,0.5]];portConstraint=eastwest;fontSize=14;" parent="MLYBAFH9ieWStkkf3gBx-42" vertex="1">
          <mxGeometry y="26" width="160" height="26" as="geometry" />
        </mxCell>
        <mxCell id="MLYBAFH9ieWStkkf3gBx-44" value="Názov&#xa;Popis" style="text;strokeColor=none;fillColor=none;spacingLeft=4;spacingRight=4;overflow=hidden;rotatable=0;points=[[0,0.5],[1,0.5]];portConstraint=eastwest;fontSize=14;" parent="MLYBAFH9ieWStkkf3gBx-42" vertex="1">
          <mxGeometry y="52" width="160" height="48" as="geometry" />
        </mxCell>
        <mxCell id="_ilCubiVnPAOIf1o1HvM-1" value="" style="edgeStyle=entityRelationEdgeStyle;fontSize=12;html=1;endArrow=ERzeroToMany;startArrow=ERzeroToMany;strokeWidth=3;endSize=9;startSize=8;exitX=0.994;exitY=-0.092;exitDx=0;exitDy=0;exitPerimeter=0;endFill=1;" parent="1" source="MLYBAFH9ieWStkkf3gBx-44" edge="1">
          <mxGeometry width="100" height="100" relative="1" as="geometry">
            <mxPoint x="219.03999999999996" y="547.5839999999998" as="sourcePoint" />
            <mxPoint x="530" y="548" as="targetPoint" />
          </mxGeometry>
        </mxCell>
        <mxCell id="MLYBAFH9ieWStkkf3gBx-9" value="Rezervácia" style="swimlane;fontStyle=0;childLayout=stackLayout;horizontal=1;startSize=26;fillColor=#e0e0e0;horizontalStack=0;resizeParent=1;resizeParentMax=0;resizeLast=0;collapsible=1;marginBottom=0;swimlaneFillColor=#ffffff;align=center;fontSize=14;" parent="1" vertex="1">
          <mxGeometry x="100" y="30" width="160" height="110" as="geometry" />
        </mxCell>
        <mxCell id="MLYBAFH9ieWStkkf3gBx-10" value="&lt;&lt;PK&gt;&gt; ID" style="text;strokeColor=none;fillColor=none;spacingLeft=4;spacingRight=4;overflow=hidden;rotatable=0;points=[[0,0.5],[1,0.5]];portConstraint=eastwest;fontSize=14;" parent="MLYBAFH9ieWStkkf3gBx-9" vertex="1">
          <mxGeometry y="26" width="160" height="26" as="geometry" />
        </mxCell>
        <mxCell id="MLYBAFH9ieWStkkf3gBx-11" value="Email&#xa;Cena&#xa;Stav" style="text;strokeColor=none;fillColor=none;spacingLeft=4;spacingRight=4;overflow=hidden;rotatable=0;points=[[0,0.5],[1,0.5]];portConstraint=eastwest;fontSize=14;" parent="MLYBAFH9ieWStkkf3gBx-9" vertex="1">
          <mxGeometry y="52" width="160" height="58" as="geometry" />
        </mxCell>
        <mxCell id="_ilCubiVnPAOIf1o1HvM-3" value="" style="edgeStyle=entityRelationEdgeStyle;fontSize=12;html=1;endArrow=ERone;startArrow=ERzeroToMany;strokeWidth=3;exitX=1.006;exitY=0.033;exitDx=0;exitDy=0;endSize=10;startSize=10;exitPerimeter=0;entryX=-0.002;entryY=0.155;entryDx=0;entryDy=0;entryPerimeter=0;endFill=0;" parent="1" source="MLYBAFH9ieWStkkf3gBx-11" target="MLYBAFH9ieWStkkf3gBx-25" edge="1">
          <mxGeometry width="100" height="100" relative="1" as="geometry">
            <mxPoint x="230" y="331" as="sourcePoint" />
            <mxPoint x="510" y="99" as="targetPoint" />
          </mxGeometry>
        </mxCell>
        <mxCell id="MLYBAFH9ieWStkkf3gBx-23" value="Užívateľ" style="swimlane;fontStyle=0;childLayout=stackLayout;horizontal=1;startSize=26;fillColor=#e0e0e0;horizontalStack=0;resizeParent=1;resizeParentMax=0;resizeLast=0;collapsible=1;marginBottom=0;swimlaneFillColor=#ffffff;align=center;fontSize=14;" parent="1" vertex="1">
          <mxGeometry x="650" y="40" width="180" height="130" as="geometry" />
        </mxCell>
        <mxCell id="MLYBAFH9ieWStkkf3gBx-24" value="&lt;&lt;PK&gt;&gt;ID" style="text;strokeColor=none;fillColor=none;spacingLeft=4;spacingRight=4;overflow=hidden;rotatable=0;points=[[0,0.5],[1,0.5]];portConstraint=eastwest;fontSize=14;" parent="MLYBAFH9ieWStkkf3gBx-23" vertex="1">
          <mxGeometry y="26" width="180" height="26" as="geometry" />
        </mxCell>
        <mxCell id="MLYBAFH9ieWStkkf3gBx-25" value="Email&#xa;Priezvisko&#xa;Krstné meno&#xa;Rola&#xa;" style="text;strokeColor=none;fillColor=none;spacingLeft=4;spacingRight=4;overflow=hidden;rotatable=0;points=[[0,0.5],[1,0.5]];portConstraint=eastwest;fontSize=14;" parent="MLYBAFH9ieWStkkf3gBx-23" vertex="1">
          <mxGeometry y="52" width="180" height="78" as="geometry" />
        </mxCell>
        <mxCell id="MLYBAFH9ieWStkkf3gBx-84" value="Vystupuje" style="swimlane;fontStyle=0;childLayout=stackLayout;horizontal=1;startSize=22;fillColor=none;horizontalStack=0;resizeParent=1;resizeParentMax=0;resizeLast=0;collapsible=1;marginBottom=0;swimlaneFillColor=#ffffff;align=center;fontSize=14;" parent="1" vertex="1">
          <mxGeometry x="330" y="440" width="90" height="60" as="geometry">
            <mxRectangle x="380" y="520" width="90" height="22" as="alternateBounds" />
          </mxGeometry>
        </mxCell>
        <mxCell id="MLYBAFH9ieWStkkf3gBx-85" value="Začiatok&#xa;Koniec" style="text;strokeColor=none;fillColor=none;spacingLeft=4;spacingRight=4;overflow=hidden;rotatable=0;points=[[0,0.5],[1,0.5]];portConstraint=eastwest;fontSize=12;" parent="MLYBAFH9ieWStkkf3gBx-84" vertex="1">
          <mxGeometry y="22" width="90" height="38" as="geometry" />
        </mxCell>
        <mxCell id="MLYBAFH9ieWStkkf3gBx-5" value="Festival" style="swimlane;fontStyle=0;childLayout=stackLayout;horizontal=1;startSize=26;fillColor=#e0e0e0;horizontalStack=0;resizeParent=1;resizeParentMax=0;resizeLast=0;collapsible=1;marginBottom=0;swimlaneFillColor=#ffffff;align=center;fontSize=14;" parent="1" vertex="1">
          <mxGeometry x="60" y="260" width="160" height="200" as="geometry" />
        </mxCell>
        <mxCell id="MLYBAFH9ieWStkkf3gBx-6" value="&lt;&lt;PK&gt;&gt; ID" style="text;strokeColor=none;fillColor=none;spacingLeft=4;spacingRight=4;overflow=hidden;rotatable=0;points=[[0,0.5],[1,0.5]];portConstraint=eastwest;fontSize=14;" parent="MLYBAFH9ieWStkkf3gBx-5" vertex="1">
          <mxGeometry y="26" width="160" height="26" as="geometry" />
        </mxCell>
        <mxCell id="MLYBAFH9ieWStkkf3gBx-8" value="Názov&#xa;Ročník&#xa;Začiatok&#xa;Koniec&#xa;Miesto konania&#xa;Kapacita&#xa;Popis&#xa;Obrázok" style="text;strokeColor=none;fillColor=none;spacingLeft=4;spacingRight=4;overflow=hidden;rotatable=0;points=[[0,0.5],[1,0.5]];portConstraint=eastwest;fontSize=14;" parent="MLYBAFH9ieWStkkf3gBx-5" vertex="1">
          <mxGeometry y="52" width="160" height="148" as="geometry" />
        </mxCell>
        <mxCell id="MLYBAFH9ieWStkkf3gBx-27" value="Interpret" style="swimlane;fontStyle=0;childLayout=stackLayout;horizontal=1;startSize=26;fillColor=#e0e0e0;horizontalStack=0;resizeParent=1;resizeParentMax=0;resizeLast=0;collapsible=1;marginBottom=0;swimlaneFillColor=#ffffff;align=center;fontSize=14;" parent="1" vertex="1">
          <mxGeometry x="530" y="475" width="160" height="130" as="geometry" />
        </mxCell>
        <mxCell id="MLYBAFH9ieWStkkf3gBx-28" value="&lt;&lt;PK&gt;&gt;ID" style="text;strokeColor=none;fillColor=none;spacingLeft=4;spacingRight=4;overflow=hidden;rotatable=0;points=[[0,0.5],[1,0.5]];portConstraint=eastwest;fontSize=14;" parent="MLYBAFH9ieWStkkf3gBx-27" vertex="1">
          <mxGeometry y="26" width="160" height="26" as="geometry" />
        </mxCell>
        <mxCell id="MLYBAFH9ieWStkkf3gBx-29" value="Názov&#xa;Dátum vzniku&#xa;Zoznam členov&#xa;Albumy" style="text;strokeColor=none;fillColor=none;spacingLeft=4;spacingRight=4;overflow=hidden;rotatable=0;points=[[0,0.5],[1,0.5]];portConstraint=eastwest;fontSize=14;" parent="MLYBAFH9ieWStkkf3gBx-27" vertex="1">
          <mxGeometry y="52" width="160" height="78" as="geometry" />
        </mxCell>
        <mxCell id="BZns07hrkQqCRaPmtEQy-1" value="Má" style="text;html=1;align=center;verticalAlign=middle;resizable=0;points=[];autosize=1;" vertex="1" parent="1">
          <mxGeometry x="480" y="70" width="30" height="20" as="geometry" />
        </mxCell>
        <mxCell id="BZns07hrkQqCRaPmtEQy-5" value="Lístok" style="swimlane;fontStyle=0;childLayout=stackLayout;horizontal=1;startSize=26;fillColor=#e0e0e0;horizontalStack=0;resizeParent=1;resizeParentMax=0;resizeLast=0;collapsible=1;marginBottom=0;swimlaneFillColor=#ffffff;align=center;fontSize=14;" vertex="1" parent="1">
          <mxGeometry x="460" y="200" width="160" height="110" as="geometry" />
        </mxCell>
        <mxCell id="BZns07hrkQqCRaPmtEQy-6" value="&lt;&lt;PK&gt;&gt; ID" style="text;strokeColor=none;fillColor=none;spacingLeft=4;spacingRight=4;overflow=hidden;rotatable=0;points=[[0,0.5],[1,0.5]];portConstraint=eastwest;fontSize=14;" vertex="1" parent="BZns07hrkQqCRaPmtEQy-5">
          <mxGeometry y="26" width="160" height="26" as="geometry" />
        </mxCell>
        <mxCell id="BZns07hrkQqCRaPmtEQy-7" value="Typ&#xa;Cena&#xa;Popis" style="text;strokeColor=none;fillColor=none;spacingLeft=4;spacingRight=4;overflow=hidden;rotatable=0;points=[[0,0.5],[1,0.5]];portConstraint=eastwest;fontSize=14;" vertex="1" parent="BZns07hrkQqCRaPmtEQy-5">
          <mxGeometry y="52" width="160" height="58" as="geometry" />
        </mxCell>
        <mxCell id="BZns07hrkQqCRaPmtEQy-8" style="edgeStyle=orthogonalEdgeStyle;rounded=0;orthogonalLoop=1;jettySize=auto;html=1;endArrow=ERone;endFill=0;strokeWidth=3;startArrow=ERzeroToMany;startFill=1;" edge="1" parent="1">
          <mxGeometry relative="1" as="geometry">
            <mxPoint x="461" y="278" as="sourcePoint" />
            <mxPoint x="140" y="260" as="targetPoint" />
            <Array as="points">
              <mxPoint x="461" y="278" />
              <mxPoint x="280" y="278" />
              <mxPoint x="280" y="230" />
              <mxPoint x="140" y="230" />
            </Array>
          </mxGeometry>
        </mxCell>
        <mxCell id="BZns07hrkQqCRaPmtEQy-9" style="edgeStyle=orthogonalEdgeStyle;rounded=0;orthogonalLoop=1;jettySize=auto;html=1;exitX=1;exitY=0.5;exitDx=0;exitDy=0;entryX=0.5;entryY=0;entryDx=0;entryDy=0;startArrow=ERzeroToMany;startFill=1;endArrow=ERzeroToMany;endFill=1;strokeWidth=3;" edge="1" parent="1" source="MLYBAFH9ieWStkkf3gBx-8" target="MLYBAFH9ieWStkkf3gBx-27">
          <mxGeometry relative="1" as="geometry" />
        </mxCell>
        <mxCell id="BZns07hrkQqCRaPmtEQy-10" value="Na" style="text;html=1;align=center;verticalAlign=middle;resizable=0;points=[];autosize=1;" vertex="1" parent="1">
          <mxGeometry x="300" y="260" width="30" height="20" as="geometry" />
        </mxCell>
        <mxCell id="BZns07hrkQqCRaPmtEQy-11" value="Zúčastní_sa" style="text;html=1;align=center;verticalAlign=middle;resizable=0;points=[];autosize=1;" vertex="1" parent="1">
          <mxGeometry x="340" y="330" width="80" height="20" as="geometry" />
        </mxCell>
      </root>
    </mxGraphModel>
  </diagram>
</mxfile>
